<svg xmlns="http://www.w3.org/2000/svg" viewBox="0 0 860 470" font-family="'Apple SD Gothic Neo','Malgun Gothic',sans-serif">
  <rect width="860" height="470" fill="#ffffff"/>
  <text x="430" y="46" text-anchor="middle" font-size="22" font-weight="700" fill="#15151a">4대 핵심 서비스</text>
  <text x="430" y="72" text-anchor="middle" font-size="14" fill="#6b7280">이미 시장에서 검증된 상용 트레이딩 솔루션</text>
  <!-- card template -->
  <g>
    <rect x="60" y="100" width="360" height="150" rx="16" fill="#fafafb" stroke="#e5e7eb"/>
    <circle cx="98" cy="138" r="16" fill="#e21f26"/><text x="98" y="144" text-anchor="middle" font-size="16" font-weight="700" fill="#fff">①</text>
    <text x="128" y="136" font-size="17" font-weight="700" fill="#15151a">Smart Scanner</text>
    <text x="128" y="158" font-size="13" fill="#6b7280">AI 기반 급등주 탐지 시스템</text>
    <text x="80" y="192" font-size="13" fill="#4b5563">· 빅데이터 수급 포착 · 패턴 매칭</text>
    <text x="80" y="214" font-size="13" fill="#4b5563">· 실시간 종목 필터링 · 확률적 시그널링</text>
  </g>
  <g>
    <rect x="440" y="100" width="360" height="150" rx="16" fill="#fafafb" stroke="#e5e7eb"/>
    <circle cx="478" cy="138" r="16" fill="#e21f26"/><text x="478" y="144" text-anchor="middle" font-size="16" font-weight="700" fill="#fff">②</text>
    <text x="508" y="136" font-size="17" font-weight="700" fill="#15151a">Stock Auto-Trading</text>
    <text x="508" y="158" font-size="13" fill="#6b7280">주식 알고리즘 오토 트레이딩</text>
    <text x="460" y="192" font-size="13" fill="#4b5563">· 가변형 매매 전략 · 기계적 실행</text>
    <text x="460" y="214" font-size="13" fill="#4b5563">· 국내/해외 주식 최적화</text>
  </g>
  <g>
    <rect x="60" y="270" width="360" height="150" rx="16" fill="#fafafb" stroke="#e5e7eb"/>
    <circle cx="98" cy="308" r="16" fill="#8247e5"/><text x="98" y="314" text-anchor="middle" font-size="16" font-weight="700" fill="#fff">③</text>
    <text x="128" y="306" font-size="17" font-weight="700" fill="#15151a">Crypto Futures Quant</text>
    <text x="128" y="328" font-size="13" fill="#6b7280">코인 퓨처스 퀀트 시스템</text>
    <text x="80" y="362" font-size="13" fill="#4b5563">· 변동성 돌파 · 추세 추종 하이브리드</text>
    <text x="80" y="384" font-size="13" fill="#4b5563">· 철저한 리스크 관리 (REDH 보유)</text>
  </g>
  <g>
    <rect x="440" y="270" width="360" height="150" rx="16" fill="#fafafb" stroke="#e5e7eb"/>
    <circle cx="478" cy="308" r="16" fill="#e21f26"/><text x="478" y="314" text-anchor="middle" font-size="16" font-weight="700" fill="#fff">④</text>
    <text x="508" y="306" font-size="17" font-weight="700" fill="#15151a">Expert Insight</text>
    <text x="508" y="328" font-size="13" fill="#6b7280">인사이트 &amp; 리포트 솔루션</text>
    <text x="460" y="362" font-size="13" fill="#4b5563">· 실전 시황 분석 · 데일리 리포트</text>
    <text x="460" y="384" font-size="13" fill="#4b5563">· 전략 인사이트 제공</text>
  </g>
</svg>
